#!OML:ASF H:\BabyWalks\Project 1\Capture day 1\Session 1\baby.ASF
:FULLY-SPECIFIED
:DEGREES
639
root 26.842 17.3348 -0.894184 -179.293 49.8263 -183.679
lowerback 18.5634 -3.74557 -3.58875
upperback 4.68518 -5.02776 1.71847
thorax -4.82346 -2.25817 4.9524
lowerneck -4.14378 -1.62898 4.331
upperneck 0.288809 -2.34615 -1.908
head 0.71066 -1.18344 -1.36296
rclavicle 2.26615e-014 -1.78906e-014
rhumerus -46.412 8.96419 -83.813
rradius 52.5723
rwrist -10.9547
rhand -13.6139 -16.1553
rfingers 7.12502
rthumb 12.5014 -45.7614
lclavicle 2.26615e-014 -1.78906e-014
lhumerus -13.2699 -22.7803 83.851
lradius 56.4831
lwrist -5.95889
lhand -0.787502 2.28927
lfingers 7.12502
lthumb 24.8359 30.6962
rfemur -29.8681 6.91211 19.5045
rtibia 41.187
rfoot -11.5765 -4.60709
rtoes 2.35083
lfemur 11.2509 -11.7188 -18.6629
ltibia 32.2787
lfoot 8.56711 -25.6947
ltoes -5.78184
640
root 26.9175 17.3706 -0.942619 -179.04 50.2749 -183.831
lowerback 18.4381 -3.67025 -3.6203
upperback 4.69261 -4.93764 1.69137
thorax -4.75872 -2.21815 4.91238
lowerneck -4.16089 -1.60297 4.38993
upperneck 0.113388 -2.31386 -1.91768
head 0.659196 -1.16837 -1.37404
rclavicle 7.97127e-014 -2.0276e-014
rhumerus -46.3521 9.1595 -84.0115
rradius 52.9072
rwrist -11.031
rhand -13.262 -16.1329
rfingers 7.12502
rthumb 12.8406 -45.718
lclavicle 7.97127e-014 -2.0276e-014
lhumerus -13.7555 -22.8954 83.929
lradius 56.0155
lwrist -5.48141
lhand -1.06659 2.24135
lfingers 7.12502
lthumb 24.5684 30.6849
rfemur -29.7452 7.35055 19.4576
rtibia 40.7196
rfoot -11.6308 -4.66457
rtoes 2.47966
lfemur 10.6358 -11.4516 -18.724
ltibia 32.7575
lfoot 9.80967 -25.4656
ltoes -4.78478
641
root 26.991 17.405 -0.990748 -178.816 50.6967 -183.984
lowerback 18.3271 -3.60336 -3.64744
upperback 4.70573 -4.85687 1.66352
thorax -4.69481 -2.18232 4.87211
lowerneck -4.17179 -1.57624 4.42035
upperneck -0.051955 -2.27904 -1.9173
head 0.610291 -1.15188 -1.377
rclavicle 6.26172e-014 -2.18663e-015
rhumerus -46.311 9.36279 -84.1911
rradius 53.2085
rwrist -11.0355
rhand -12.9604 -16.0648
rfingers 7.12502
rthumb 13.1314 -45.6313
lclavicle 6.26172e-014 -2.18663e-015
lhumerus -14.2313 -22.9807 84.0001
lradius 55.5659
lwrist -4.98516
lhand -1.32901 2.1894
lfingers 7.12502
lthumb 24.3168 30.667
rfemur -29.6034 7.71687 19.4066
rtibia 40.261
rfoot -11.6862 -4.66085
rtoes 2.63252
lfemur 10.0241 -11.1455 -18.7763
ltibia 33.2794
lfoot 10.8976 -25.2182
ltoes -3.64447
642
root 27.0625 17.4378 -1.03861 -178.621 51.0828 -184.134
lowerback 18.2389 -3.54785 -3.6632
upperback 4.72355 -4.7881 1.63669
thorax -4.63752 -2.15171 4.83071
lowerneck -4.16579 -1.54992 4.43524
upperneck -0.220273 -2.24322 -1.92273
head 0.557768 -1.13494 -1.37889
rclavicle 6.82825e-014 -2.52457e-014
rhumerus -46.2906 9.56824 -84.3482
rradius 53.4769
rwrist -10.9851
rhand -12.694 -15.9709
rfingers 7.12502
rthumb 13.3882 -45.5207
lclavicle 6.82825e-014 -2.52457e-014
lhumerus -14.6978 -23.0312 84.0682
lradius 55.1244
lwrist -4.48163
lhand -1.56716 2.1146
lfingers 7.12502
lthumb 24.0885 30.6226
rfemur -29.4362 8.00789 19.3564
rtibia 39.8121
rfoot -11.746 -4.60852
rtoes 2.76465
lfemur 9.41588 -10.804 -18.817
ltibia 33.8469
lfoot 11.7932 -24.9676
ltoes -2.51364
643
root 27.1321 17.4688 -1.08633 -178.452 51.4287 -184.265
lowerback 18.1783 -3.50441 -3.65463
upperback 4.74677 -4.72973 1.61249
thorax -4.58979 -2.12543 4.78251
lowerneck -4.13878 -1.52666 4.44366
upperneck -0.397972 -2.21007 -1.9459
head 0.498655 -1.11952 -1.38505
rclavicle 1.91827e-014 -1.43125e-014
rhumerus -46.2942 9.77339 -84.484
rradius 53.7077
rwrist -10.8958
rhand -12.466 -15.8596
rfingers 7.12502
rthumb 13.6079 -45.3949
lclavicle 1.91827e-014 -1.43125e-014
lhumerus -15.1548 -23.0423 84.1358
lradius 54.7115
lwrist -4.04838
lhand -1.69426 2.10302
lfingers 7.12502
lthumb 23.9666 30.6271
rfemur -29.2339 8.22775 19.3174
rtibia 39.3725
rfoot -11.8117 -4.5114
rtoes 2.888
lfemur 8.81362 -10.428 -18.8398
ltibia 34.4649
lfoot 12.444 -24.7296
ltoes -1.58439
